<?xml version="1.0" standalone="no"?>
<!DOCTYPE svg PUBLIC "-//W3C//DTD SVG 20010904//EN"
 "http://www.w3.org/TR/2001/REC-SVG-20010904/DTD/svg10.dtd">
<svg version="1.0" xmlns="http://www.w3.org/2000/svg"
 width="47.000000pt" height="37.000000pt" viewBox="0 0 47.000000 37.000000"
 preserveAspectRatio="xMidYMid meet">

<g transform="translate(0.000000,37.000000) scale(0.100000,-0.100000)"
fill="#000000" stroke="none">
<path d="M132 288 c-15 -15 -15 -41 0 -56 18 -18 192 -16 208 3 26 32 -13 81
-48 59 -9 -6 -18 -20 -19 -30 -2 -15 -1 -14 7 4 15 35 65 23 58 -14 -3 -17
-14 -19 -97 -22 -52 -1 -98 1 -104 7 -5 5 -6 18 -2 30 9 28 43 27 55 -1 5 -14
9 -17 9 -7 1 19 -18 39 -39 39 -9 0 -21 -5 -28 -12z"/>
<path d="M190 140 c-5 -51 -7 -55 -30 -55 -35 0 -41 41 -8 55 17 7 18 9 4 7
-46 -6 -45 -68 1 -75 31 -5 45 21 41 75 l-4 48 -4 -55z"/>
<path d="M280 141 c50 -6 55 -8 55 -31 0 -35 -41 -41 -55 -8 -7 17 -9 18 -7 4
1 -10 10 -24 19 -30 35 -22 74 27 48 59 -8 10 -29 14 -64 13 l-51 -1 55 -6z"/>
</g>
</svg>
